<svg version="1.1" xmlns="http://www.w3.org/2000/svg" xmlns:xlink="http://www.w3.org/1999/xlink" width="85" height="18" viewBox="0 0 85 18">
<path id="arbuzz-" d="M84.615,18.158 L72.086,18.158 L72.086,15.014 L77.558,9.061 L72.326,9.061 L72.326,5.029 L84.375,5.029 L84.375,8.173 L78.902,14.126 L84.615,14.126 L84.615,18.158 zM58.406,15.014 L63.878,9.061 L58.646,9.061 L58.646,5.029 L70.695,5.029 L70.695,8.173 L65.223,14.126 L70.935,14.126 L70.935,18.158 L58.406,18.158 L58.406,15.014 zM51.207,16.334 C50.343,17.654 49.023,18.398 47.342,18.398 C44.654,18.398 42.758,16.430 42.758,13.406 C42.758,13.406 42.758,5.029 42.758,5.029 L48.159,5.029 C48.159,5.029 48.159,11.846 48.159,11.846 C48.159,12.950 48.735,13.646 49.599,13.646 C50.583,13.646 51.207,12.806 51.207,11.534 C51.207,11.534 51.207,5.029 51.207,5.029 L56.607,5.029 L56.607,18.158 L51.207,18.158 C51.207,18.158 51.207,16.334 51.207,16.334 zM35.559,18.350 C34.143,18.350 32.943,17.798 32.079,16.814 C32.079,16.814 32.079,18.158 32.079,18.158 L26.678,18.158 L26.678,0.349 L32.079,0.349 C32.079,0.349 32.079,6.349 32.079,6.349 C32.919,5.365 34.071,4.837 35.415,4.837 C39.063,4.837 41.440,7.525 41.440,11.678 C41.440,15.734 39.135,18.350 35.559,18.350 zM34.023,8.989 C32.847,8.989 32.079,9.997 32.079,11.534 C32.079,13.070 32.847,14.078 34.023,14.078 C35.223,14.078 35.991,13.070 35.991,11.534 C35.991,9.997 35.223,8.989 34.023,8.989 zM21.387,11.894 C21.387,11.894 21.387,18.158 21.387,18.158 L15.987,18.158 L15.987,5.029 L21.387,5.029 C21.387,5.029 21.387,6.949 21.387,6.949 C22.299,5.581 23.691,4.789 25.396,4.789 C25.396,4.789 25.396,9.661 25.396,9.661 C22.971,9.301 21.387,10.166 21.387,11.894 zM8.531,16.742 C7.763,17.798 6.515,18.398 4.834,18.398 C2.050,18.398 0.442,16.766 0.442,14.270 C0.442,11.678 2.194,10.310 5.531,10.262 C5.531,10.262 8.531,10.262 8.531,10.262 C8.507,9.349 7.811,8.821 6.491,8.821 C5.507,8.821 3.994,9.109 2.506,9.661 C2.506,9.661 1.306,6.061 1.306,6.061 C3.538,5.245 5.843,4.789 7.787,4.789 C11.579,4.789 13.835,6.565 13.835,9.661 C13.835,9.661 13.835,18.158 13.835,18.158 L8.531,18.158 C8.531,18.158 8.531,16.742 8.531,16.742 zM8.531,12.758 C8.531,12.758 6.659,12.758 6.659,12.758 C5.915,12.758 5.507,13.118 5.507,13.814 C5.507,14.534 5.939,14.966 6.707,14.966 C7.403,14.966 8.099,14.606 8.531,13.958 C8.531,13.958 8.531,12.758 8.531,12.758 z" fill="#3C3D48" />
</svg>
