<svg version="1.1" xmlns="http://www.w3.org/2000/svg" xmlns:xlink="http://www.w3.org/1999/xlink" width="12" height="16" viewBox="0 0 12 16">
<path id="addbag" d="M7.999,16.013 C7.999,16.013 3.991,16.013 3.991,16.013 C1.791,16.013 0.000,14.309 0.000,12.092 C0.000,12.092 0.000,6.100 0.000,6.100 C0.000,5.544 0.448,4.991 1.000,4.991 C1.000,4.991 2.000,4.991 2.000,4.991 C2.000,4.991 2.000,4.085 2.000,4.085 C2.000,1.863 3.794,0.055 6.000,0.055 C8.206,0.055 10.000,1.863 10.000,4.085 C10.000,4.085 10.000,4.991 10.000,4.991 C10.000,4.991 11.000,4.991 11.000,4.991 C11.552,4.991 12.000,5.544 12.000,6.100 C12.000,6.100 12.000,12.082 12.000,12.082 C12.000,14.305 10.205,16.013 7.999,16.013 zM8.000,4.085 C8.000,2.973 7.103,2.070 6.000,2.070 C4.897,2.070 4.000,2.973 4.000,4.085 C4.000,4.085 4.000,4.991 4.000,4.991 L8.000,4.991 C8.000,4.991 8.000,4.085 8.000,4.085 zM10.000,7.007 L2.000,7.007 C2.000,7.007 2.000,12.092 2.000,12.092 C2.000,13.198 2.893,13.997 3.991,13.997 C3.991,13.997 7.999,13.997 7.999,13.997 C9.102,13.997 10.000,13.194 10.000,12.082 C10.000,12.082 10.000,7.007 10.000,7.007 zM8.449,10.023 C8.449,10.023 8.359,10.069 8.359,10.069 C7.620,10.441 6.810,10.627 6.000,10.627 C5.190,10.627 4.381,10.441 3.643,10.070 C3.643,10.070 3.551,10.023 3.551,10.023 C3.058,9.774 2.858,9.167 3.106,8.670 C3.355,8.174 3.956,7.973 4.449,8.223 C4.449,8.223 4.540,8.268 4.540,8.268 C5.453,8.729 6.547,8.729 7.462,8.267 C7.462,8.267 7.551,8.223 7.551,8.223 C8.045,7.973 8.646,8.174 8.894,8.670 C9.142,9.167 8.942,9.774 8.449,10.023 z" fill="#3C3D48" />
</svg>
