<svg version="1.1" xmlns="http://www.w3.org/2000/svg" xmlns:xlink="http://www.w3.org/1999/xlink" width="12" height="16" viewBox="0 0 12 16">
<path id="login" d="M9.180,16.012 C9.180,16.012 2.817,16.012 2.817,16.012 C1.264,16.012 -0.000,14.706 -0.000,13.039 C-0.000,12.237 0.171,11.482 0.496,10.762 C0.496,10.762 0.998,9.646 0.998,9.646 C1.226,9.139 1.821,8.914 2.322,9.142 C2.825,9.372 3.047,9.964 2.819,10.470 C2.819,10.470 2.317,11.572 2.317,11.572 C2.109,12.032 2.000,12.524 2.000,13.040 C2.000,13.595 2.367,13.997 2.817,13.997 C2.817,13.997 9.180,13.997 9.180,13.997 C9.632,13.997 10.000,13.594 10.000,13.037 C10.000,12.522 9.891,12.058 9.685,11.601 C9.685,11.601 9.181,10.483 9.181,10.483 C8.953,9.976 9.175,9.379 9.678,9.148 C10.181,8.919 10.773,9.143 11.002,9.649 C11.002,9.649 11.505,10.767 11.505,10.767 C11.829,11.484 12.000,12.237 12.000,13.037 C12.000,14.706 10.735,16.012 9.180,16.012 zM6.000,9.058 C3.794,9.058 2.000,7.024 2.000,4.523 C2.000,2.022 3.794,-0.012 6.000,-0.012 C8.206,-0.012 10.000,2.022 10.000,4.523 C10.000,7.024 8.206,9.058 6.000,9.058 zM6.000,2.003 C4.897,2.003 4.000,3.133 4.000,4.523 C4.000,5.912 4.897,7.042 6.000,7.042 C7.103,7.042 8.000,5.912 8.000,4.523 C8.000,3.133 7.103,2.003 6.000,2.003 z" fill="#3C3D48" />
</svg>
