<svg version="1.1" xmlns="http://www.w3.org/2000/svg" xmlns:xlink="http://www.w3.org/1999/xlink" width="16" height="17" viewBox="0 0 16 17">
<path id="support" d="M13.462,5.994 C13.462,5.994 13.011,5.994 13.011,5.994 C13.011,5.994 13.011,4.786 13.011,4.786 C13.011,2.319 10.453,-0.000 7.999,-0.000 C5.546,-0.000 2.988,2.319 2.988,4.786 C2.988,4.786 2.988,6.010 2.988,6.010 C2.988,6.010 2.537,6.010 2.537,6.010 C1.137,6.010 -0.002,7.562 -0.002,8.970 C-0.002,10.377 1.137,11.992 2.537,11.992 C2.537,11.992 5.000,11.992 5.000,11.992 L5.000,7.000 L5.000,6.729 C5.000,6.729 5.000,4.973 5.000,4.973 C5.000,3.310 6.345,2.082 7.999,2.082 C9.653,2.082 10.999,3.310 10.999,4.973 C10.999,4.973 10.999,6.869 10.999,6.869 L10.999,7.140 L10.999,11.247 L10.999,11.976 C10.999,11.976 10.999,13.226 10.999,13.226 C10.999,13.915 10.441,14.476 9.756,14.476 C9.756,14.476 9.628,14.476 9.628,14.476 C9.350,13.848 8.726,13.408 7.999,13.408 C7.015,13.408 6.214,14.214 6.214,15.204 C6.214,16.195 7.015,17.000 7.999,17.000 C8.726,17.000 9.350,16.560 9.628,15.933 C9.628,15.933 9.756,15.933 9.756,15.933 C11.240,15.933 13.011,14.718 13.011,13.226 C13.011,13.226 13.011,11.976 13.011,11.976 C13.011,11.976 13.462,11.976 13.462,11.976 C14.862,11.976 16.001,10.424 16.001,9.016 C16.001,7.609 14.862,5.994 13.462,5.994 zM2.988,10.003 C2.988,10.003 2.537,10.003 2.537,10.003 C1.936,10.003 1.978,9.574 1.978,8.970 C1.978,8.365 1.936,7.967 2.537,7.967 C2.537,7.967 2.988,7.967 2.988,7.967 L2.988,10.003 zM13.462,9.987 C13.462,9.987 13.011,9.987 13.011,9.987 L13.011,7.983 C13.011,7.983 13.462,7.983 13.462,7.983 C14.063,7.983 14.021,8.412 14.021,9.016 C14.021,9.621 14.063,9.987 13.462,9.987 z" fill="#3C3D48" />
</svg>
