<svg version="1.1" xmlns="http://www.w3.org/2000/svg" xmlns:xlink="http://www.w3.org/1999/xlink" width="28" height="23" viewBox="0 0 28 23">
<path id="Arrow" d="M27.047,12.560 C27.047,12.560 17.440,22.167 17.440,22.167 C16.854,22.753 15.905,22.753 15.319,22.167 C14.733,21.582 14.733,20.631 15.319,20.046 C15.319,20.046 22.365,13.000 22.365,13.000 C22.365,13.000 1.500,13.000 1.500,13.000 C0.672,13.000 0.000,12.328 0.000,11.500 C0.000,10.672 0.672,10.000 1.500,10.000 C1.500,10.000 22.365,10.000 22.365,10.000 C22.365,10.000 15.319,2.954 15.319,2.954 C14.733,2.369 14.733,1.418 15.319,0.833 C15.905,0.247 16.854,0.247 17.440,0.833 C17.440,0.833 27.047,10.439 27.047,10.439 C27.632,11.025 27.632,11.975 27.047,12.560 z" fill="#3C3D48" opacity="0.502" />
</svg>
