<svg version="1.1" xmlns="http://www.w3.org/2000/svg" xmlns:xlink="http://www.w3.org/1999/xlink" width="26" height="26" viewBox="0 0 26 26">
<g id="facebook-round">
<g id="Base" >
<path id="Base-stroke" d="M13.000,0.475 C19.917,0.475 25.525,6.083 25.525,13.000 C25.525,19.917 19.917,25.525 13.000,25.525 C6.083,25.525 0.475,19.917 0.475,13.000 C0.475,6.083 6.083,0.475 13.000,0.475 z" fill="none" stroke="#E5E5E5" stroke-opacity="1.000" stroke-width="1" />
</g>
<path id="Icon" d="M13.126,19.000 L11.240,19.000 L11.240,13.001 L10.000,13.001 L10.000,10.745 L11.240,10.745 C11.240,10.745 11.238,9.713 11.238,9.713 C11.238,8.026 11.645,6.999 13.416,6.999 C13.416,6.999 14.988,6.999 14.988,6.999 L14.988,9.256 C14.988,9.256 13.852,9.256 13.852,9.256 C13.162,9.256 13.129,9.544 13.129,10.084 C13.129,10.084 13.126,10.745 13.126,10.745 L14.999,10.745 L14.803,12.999 L13.128,13.001 L13.126,19.000 z" fill="#3C3D48" opacity="0.502" />
</g>
</svg>
