<svg version="1.1" xmlns="http://www.w3.org/2000/svg" xmlns:xlink="http://www.w3.org/1999/xlink" width="26" height="26" viewBox="0 0 26 26">
<g id="insta-round">
<g id="Base" >
<path id="Base-stroke" d="M13.000,0.475 C19.917,0.475 25.525,6.083 25.525,13.000 C25.525,19.917 19.917,25.525 13.000,25.525 C6.083,25.525 0.475,19.917 0.475,13.000 C0.475,6.083 6.083,0.475 13.000,0.475 z" fill="none" stroke="#E5E5E5" stroke-opacity="1.000" stroke-width="1" />
</g>
<path id="Icon" d="M17.500,6.987 C17.500,6.987 8.500,6.987 8.500,6.987 C7.672,6.987 7.000,7.660 7.000,8.489 C7.000,8.489 7.000,17.501 7.000,17.501 C7.000,18.330 7.672,19.002 8.500,19.002 C8.500,19.002 17.500,19.002 17.500,19.002 C18.328,19.002 19.000,18.330 19.000,17.501 C19.000,17.501 19.000,8.489 19.000,8.489 C19.000,7.660 18.328,6.987 17.500,6.987 zM13.000,11.493 C14.382,11.493 14.500,12.995 14.500,12.995 C14.500,12.995 14.544,14.497 13.000,14.497 C11.456,14.497 11.500,12.995 11.500,12.995 C11.500,12.995 11.618,11.493 13.000,11.493 zM17.500,16.749 C17.500,17.164 17.165,17.501 16.750,17.501 C16.750,17.501 9.250,17.501 9.250,17.501 C8.835,17.501 8.500,17.164 8.500,16.749 C8.500,16.749 8.500,12.995 8.500,12.995 C8.500,12.579 8.835,12.244 9.250,12.244 C9.250,12.244 10.107,12.244 10.107,12.244 C10.044,12.485 10.000,12.734 10.000,12.995 C10.000,14.654 11.343,15.998 13.000,15.998 C14.657,15.998 16.000,14.654 16.000,12.995 C16.000,12.734 15.956,12.485 15.893,12.244 C15.893,12.244 16.750,12.244 16.750,12.244 C17.165,12.244 17.500,12.579 17.500,12.995 C17.500,12.995 17.500,16.749 17.500,16.749 zM17.500,9.991 C17.500,10.405 17.165,10.741 16.750,10.741 C16.750,10.741 16.000,10.741 16.000,10.741 C15.586,10.741 15.250,10.405 15.250,9.991 C15.250,9.991 15.250,9.239 15.250,9.239 C15.250,8.826 15.586,8.489 16.000,8.489 C16.000,8.489 16.750,8.489 16.750,8.489 C17.165,8.489 17.500,8.826 17.500,9.239 C17.500,9.239 17.500,9.991 17.500,9.991 z" fill="#3C3D48" opacity="0.502" />
</g>
</svg>
