<svg version="1.1" xmlns="http://www.w3.org/2000/svg" xmlns:xlink="http://www.w3.org/1999/xlink" width="26" height="26" viewBox="0 0 26 26">
<g id="twitter-round">
<g id="Base" >
<path id="Base-stroke" d="M13.000,0.475 C19.917,0.475 25.525,6.083 25.525,13.000 C25.525,19.917 19.917,25.525 13.000,25.525 C6.083,25.525 0.475,19.917 0.475,13.000 C0.475,6.083 6.083,0.475 13.000,0.475 z" fill="none" stroke="#E5E5E5" stroke-opacity="1.000" stroke-width="1" />
</g>
<path id="Icon" d="M19.000,9.183 C18.558,9.384 18.084,9.520 17.586,9.581 C18.094,9.270 18.485,8.774 18.668,8.184 C18.193,8.474 17.666,8.684 17.105,8.797 C16.656,8.306 16.016,8.000 15.308,8.000 C13.948,8.000 12.846,9.130 12.846,10.524 C12.846,10.722 12.868,10.915 12.910,11.100 C10.864,10.995 9.050,9.989 7.835,8.462 C7.623,8.834 7.502,9.268 7.502,9.731 C7.502,10.607 7.937,11.380 8.597,11.832 C8.194,11.819 7.814,11.705 7.482,11.516 C7.482,11.527 7.482,11.537 7.482,11.548 C7.482,12.771 8.331,13.792 9.457,14.024 C9.250,14.082 9.033,14.112 8.808,14.112 C8.650,14.112 8.495,14.096 8.345,14.067 C8.658,15.070 9.568,15.800 10.645,15.820 C9.802,16.497 8.741,16.900 7.587,16.900 C7.388,16.900 7.193,16.889 7.000,16.866 C8.089,17.581 9.384,18.000 10.774,18.000 C15.302,18.000 17.779,14.153 17.779,10.818 C17.779,10.707 17.776,10.598 17.771,10.490 C18.253,10.135 18.670,9.690 19.000,9.183 z" fill="#3C3D48" opacity="0.502" />
</g>
</svg>
