<svg version="1.1" xmlns="http://www.w3.org/2000/svg" xmlns:xlink="http://www.w3.org/1999/xlink" width="12" height="9" viewBox="0 0 12 9">
<path id="youtube" d="M11.492,0.863 C11.161,0.232 10.807,0.114 10.089,0.066 C9.371,0.018 7.567,-0.006 6.000,-0.006 C6.000,-0.006 6.000,-0.006 6.000,-0.006 C4.433,-0.006 2.629,0.018 1.911,0.066 C1.193,0.114 0.839,0.232 0.508,0.863 C0.177,1.493 -0.000,2.586 -0.000,4.498 C-0.000,4.498 -0.000,4.498 -0.000,4.498 C-0.000,4.499 -0.000,4.500 -0.000,4.500 C-0.000,4.500 -0.000,4.501 -0.000,4.502 C-0.000,4.502 -0.000,4.502 -0.000,4.502 C-0.000,6.414 0.177,7.507 0.508,8.137 C0.839,8.767 1.193,8.886 1.911,8.934 C2.629,8.981 4.433,9.005 6.000,9.005 C6.000,9.005 6.000,9.005 6.000,9.005 C7.567,9.005 9.371,8.981 10.089,8.934 C10.807,8.886 11.161,8.767 11.492,8.137 C11.823,7.507 12.000,6.414 12.000,4.502 C12.000,4.501 12.000,4.500 12.000,4.500 C12.000,4.500 12.000,4.499 12.000,4.498 C12.000,2.586 11.823,1.493 11.492,0.863 zM4.805,6.868 L4.805,2.132 L8.213,4.500 L4.805,6.868 z" fill="#3C3D48" opacity="0.502" />
</svg>
